<?xml version="1.0" encoding="UTF-8"?>
<svg id="Capa_1" data-name="Capa 1" xmlns="http://www.w3.org/2000/svg" viewBox="0 0 1024 1024">
  <defs>
    <style>
      .cls-1 {
        fill: #ff5757;
      }

      .cls-2 {
        fill: #fff;
      }

      .cls-3 {
        fill: #b51528;
      }

      .cls-4 {
        fill: #dd1725;
      }
    </style>
  </defs>
  <path class="cls-1" d="M836.01,1007.9c-216.01,11.54-432.02,11.54-648.02,0-88.64-5.11-167.03-83.51-172.15-172.15-11.54-216.01-11.54-432.02,0-648.02C20.96,99.09,99.35,20.7,187.99,15.59c216.01-11.54,432.02-11.54,648.02,0,88.64,5.11,167.03,83.51,172.15,172.15,11.54,216.01,11.54,432.02,0,648.02-5.11,88.64-83.51,167.03-172.15,172.15Z"/>
  <path class="cls-3" d="M836.01,1007.64c-216.01,11.26-432.02,11.26-648.02,0-88.63-5-167.18-83.25-172.36-171.89-11.25-208.25-11.25-416.5,0-624.75C20.81,122.37,99.36,44.12,187.99,39.12c216.01-11.26,432.02-11.26,648.02,0,88.63,5,167.18,83.25,172.36,171.89,11.25,208.25,11.25,416.5,0,624.75-5.18,88.64-83.73,166.89-172.36,171.89Z"/>
  <path class="cls-4" d="M836.01,989.91c-216.01,11.15-432.02,11.15-648.02,0-88.62-4.96-167.24-83.14-172.44-171.78-11.14-205.13-11.14-410.26,0-615.39C20.75,114.09,99.37,35.9,187.99,30.95c216.01-11.15,432.02-11.15,648.02,0,88.62,4.95,167.24,83.14,172.44,171.78,11.14,205.13,11.14,410.26,0,615.39-5.2,88.64-83.82,166.83-172.44,171.78Z"/>
  <g>
    <rect class="cls-2" x="299.58" y="230.49" width="81.04" height="81.04" transform="translate(-92.02 319.86) rotate(-45)"/>
    <rect class="cls-2" x="528.78" y="115.89" width="81.04" height="81.04" transform="translate(56.15 448.37) rotate(-45)"/>
    <rect class="cls-2" x="643.38" y="230.49" width="81.04" height="81.04" transform="translate(8.68 562.97) rotate(-45)"/>
    <rect class="cls-2" x="757.99" y="345.09" width="81.04" height="81.04" transform="translate(-38.79 677.57) rotate(-45)"/>
    <rect class="cls-2" x="414.18" y="230.49" width="81.04" height="81.04" transform="translate(-58.45 400.9) rotate(-45)"/>
    <rect class="cls-2" x="184.98" y="345.09" width="81.04" height="81.04" transform="translate(-206.62 272.39) rotate(-45)"/>
    <rect class="cls-2" x="299.58" y="345.09" width="81.04" height="81.04" transform="translate(-173.06 353.43) rotate(-45)"/>
    <polygon class="cls-2" points="913.1 442.91 855.8 500.21 798.5 442.91 741.2 500.21 683.9 442.91 626.6 500.21 569.3 442.91 512 500.21 454.7 442.91 397.4 500.21 340.1 442.91 282.8 500.21 225.5 442.91 168.2 500.21 110.9 442.91 53.59 500.21 110.9 557.51 168.2 614.81 225.5 672.12 282.8 729.42 340.1 786.72 397.4 844.02 454.7 901.32 512 958.62 569.3 901.32 626.6 844.02 683.9 786.72 741.2 729.42 798.5 672.12 855.8 614.81 913.1 557.51 970.41 500.21 913.1 442.91"/>
    <rect class="cls-2" x="643.38" y="345.09" width="81.04" height="81.04" transform="translate(-72.36 596.53) rotate(-45)"/>
    <rect class="cls-2" x="414.18" y="345.09" width="81.04" height="81.04" transform="translate(-139.49 434.46) rotate(-45)"/>
    <rect class="cls-2" x="528.78" y="345.09" width="81.04" height="81.04" transform="translate(-105.92 515.5) rotate(-45)"/>
  </g>
</svg>